{"title":"The.Revenant.2015[French].720p.x264.AC3-RiSHU","uid":14269649,"size":1935392839,"categoryP":"video","categoryS":"hd___movies","magnet":"?xt=urn:btih:37fb557303535fa59d765c77433d3703e1c7bd3c&amp;dn=The.Revenant.2015%5BFrench%5D.720p.x264.AC3-RiSHU&amp;tr=udp%3A%2F%2Ftracker.leechers-paradise.org%3A6969&amp;tr=udp%3A%2F%2Fzer0day.ch%3A1337&amp;tr=udp%3A%2F%2Fopen.demonii.com%3A1337&amp;tr=udp%3A%2F%2Ftracker.coppersurfer.tk%3A6969&amp;tr=udp%3A%2F%2Fexodus.desync.com%3A6969","seeders":12,"leechers":6,"uploader":"TheDeb","files":1,"time":1460296800,"description":"Format                                   : Matroska\r\nFormat version                           : Version 2\r\nFile size                                : 1.80 GiB\r\nDuration                                 : 2h 36mn\r\nOverall bit rate                         : 1 650 Kbps\r\nEncoded date                             : UTC 2016-04-10 11:39:42\r\nWriting application                      : mkvmerge v8.5.2 ('Crosses') 32bit\r\nWriting library                          : libebml v1.3.3 + libmatroska v1.4.4\r\n\r\nVideo\r\nID                                       : 1\r\nFormat                                   : AVC\r\nFormat/Info                              : Advanced Video Codec\r\nFormat profile                           :   \r\nFormat settings, CABAC                   : Yes\r\nFormat settings, ReFrames                : 5 frames\r\nCodec ID                                 : V_MPEG4/ISO/AVC\r\nDuration                                 : 2h 36mn\r\nBit rate                                 : 1 200 Kbps\r\nWidth                                    : 1 280 pixels\r\nHeight                                   : 720 pixels\r\nDisplay aspect ratio                     : 16:9\r\nFrame rate mode                          : Constant\r\nFrame rate                               : 23.976 (24000/1001) fps\r\nColor space                              : YUV\r\nChroma subsampling                       : 4:2:0\r\nBit depth                                : 8 bits\r\nScan type                                : Progressive\r\nBits/(Pixel*Frame)                       : 0.054\r\nStream size                              : 1.31 GiB (73%)\r\nTitle                                    : RiSHU\r\nWriting library                          : x264 core 148 r2638 7599210\r\nDefault                                  : Yes\r\nForced                                   : No\r\n\r\nAudio\r\nID                                       : 2\r\nFormat                                   : AC-3\r\nFormat/Info                              : Audio Coding 3\r\nMode extension                           : CM (complete main)\r\nFormat settings, Endianness              : Big\r\nCodec ID                                 : A_AC3\r\nDuration                                 : 2h 36mn\r\nBit rate mode                            : Constant\r\nBit rate                                 : 448 Kbps\r\nChannel(s)                               : 6 channels\r\nChannel positions                        : Front: L C R, Side: L R, LFE\r\nSampling rate                            : 48.0 KHz\r\nFrame rate                               : 31.250 fps (1536 spf)\r\nCompression mode                         : Lossy\r\nStream size                              : 501 MiB (27%)\r\nTitle                                    : RiSHU\r\nLanguage                                 : French\r\nDefault                                  : Yes\r\nForced                                   : No\r\n\r\nSCREENS:\r\n\r\n \nhttp://extraimago.com/images/2016/04/10/vlcsnap-2016-04-10-13h49m48s981.png \nhttp://extraimago.com/images/2016/04/10/vlcsnap-2016-04-10-13h49m21s802.png \nhttp://extraimago.com/images/2016/04/10/vlcsnap-2016-04-10-13h48m10s790.png \nhttp://extraimago.com/images/2016/04/10/vlcsnap-2016-04-10-13h50m00s217.png \nhttp://extraimago.com/images/2016/04/10/vlcsnap-2016-04-10-13h47m30s978.png \nhttp://extraimago.com/images/2016/04/10/vlcsnap-2016-04-10-13h47m06s802.png","torrent":{"xt":"urn:btih:37fb557303535fa59d765c77433d3703e1c7bd3c","amp;dn":"The.Revenant.2015%5BFrench%5D.720p.x264.AC3-RiSHU","amp;tr":["udp%3A%2F%2Ftracker.leechers-paradise.org%3A6969","udp%3A%2F%2Fzer0day.ch%3A1337","udp%3A%2F%2Fopen.demonii.com%3A1337","udp%3A%2F%2Ftracker.coppersurfer.tk%3A6969","udp%3A%2F%2Fexodus.desync.com%3A6969"],"infoHash":"37fb557303535fa59d765c77433d3703e1c7bd3c","infoHashBuffer":{"type":"Buffer","data":[55,251,85,115,3,83,95,165,157,118,92,119,67,61,55,3,225,199,189,60]},"announce":[],"urlList":[]}}